name Walk7.mot
datacolumns 19
datarows 20
range 2.43500000 2.53000000
endheader

                time	   L_ground_force_vx	   L_ground_force_vy	   L_ground_force_vz	   L_ground_force_px	   L_ground_force_py	   L_ground_force_pz	   R_ground_force_vx	   R_ground_force_vy	   R_ground_force_vz	   R_ground_force_px	   R_ground_force_py	   R_ground_force_pz	   L_ground_torque_x	   L_ground_torque_y	   L_ground_torque_z	   R_ground_torque_x	   R_ground_torque_y	   R_ground_torque_z	
          2.43500000	          0.00000000	          0.00000000	         -0.00000000	         -0.00000000	          0.00000000	         -0.00000000	          0.03634794	         -0.72563930	         -0.02574988	         -0.01182985	          0.00000000	         -0.00340206	          0.00000000	          0.00000000	          0.00000000	          0.00000000	         -0.00311637	          0.00000000	
          2.44000000	          0.00000000	          0.00000000	         -0.00000000	         -0.00000000	          0.00000000	         -0.00000000	          0.01406760	         -0.13427757	         -0.00817648	         -0.00393677	          0.00000000	         -0.00112729	          0.00000000	          0.00000000	          0.00000000	          0.00000000	         -0.00103700	          0.00000000	
          2.44500000	         -0.00000000	         -0.00000000	          0.00000000	          0.00000000	          0.00000000	          0.00000000	          0.00001708	          0.04092993	          0.00049178	          0.00017514	          0.00000000	          0.00005173	          0.00000000	         -0.00000000	          0.00000000	          0.00000000	          0.00004616	          0.00000000	
          2.45000000	         -0.00000000	         -0.00000000	          0.00000000	          0.00000000	          0.00000000	          0.00000000	         -0.00152171	          0.02609627	          0.00102573	          0.00047651	          0.00000000	          0.00013689	          0.00000000	         -0.00000000	          0.00000000	          0.00000000	          0.00012553	          0.00000000	
          2.45500000	          0.00000000	         -0.00000000	          0.00000000	          0.00000000	          0.00000000	          0.00000000	         -0.00043035	          0.00290702	          0.00023547	          0.00011517	          0.00000000	          0.00003293	          0.00000000	         -0.00000000	          0.00000000	          0.00000000	          0.00003034	          0.00000000	
          2.46000000	          0.00000000	          0.00000000	         -0.00000000	         -0.00000000	          0.00000000	         -0.00000000	          0.00004394	         -0.00201319	         -0.00004500	         -0.00001927	          0.00000000	         -0.00000558	          0.00000000	          0.00000000	          0.00000000	          0.00000000	         -0.00000508	          0.00000000	
          2.46500000	          0.00000000	          0.00000000	         -0.00000000	         -0.00000000	          0.00000000	         -0.00000000	          0.00005907	         -0.00088234	         -0.00003822	         -0.00001793	          0.00000000	         -0.00000515	          0.00000000	          0.00000000	          0.00000000	          0.00000000	         -0.00000472	          0.00000000	
          2.47000000	         -0.00000000	         -0.00000000	         -0.00000000	         -0.00000000	          0.00000000	         -0.00000000	          0.00001187	         -0.00003000	         -0.00000588	         -0.00000296	          0.00000000	         -0.00000084	          0.00000000	          0.00000000	          0.00000000	          0.00000000	         -0.00000078	          0.00000000	
          2.47500000	         -0.00000000	         -0.00000000	          0.00000000	          0.00000000	          0.00000000	          0.00000000	         -0.00000307	          0.00008730	          0.00000249	          0.00000111	          0.00000000	          0.00000032	          0.00000000	         -0.00000000	          0.00000000	          0.00000000	          0.00000029	          0.00000000	
          2.48000000	         -0.00000000	         -0.00000000	          0.00000000	          0.00000000	          0.00000000	          0.00000000	         -0.00000215	          0.00002784	          0.00000134	          0.00000063	          0.00000000	          0.00000018	          0.00000000	         -0.00000000	          0.00000000	          0.00000000	          0.00000017	          0.00000000	
          2.48500000	          0.00000000	          0.00000000	         -0.00000000	         -0.00000000	          0.00000000	          0.00000000	         -0.00000027	         -0.00000163	          0.00000011	          0.00000006	          0.00000000	          0.00000002	          0.00000000	          0.00000000	          0.00000000	          0.00000000	          0.00000002	          0.00000000	
          2.49000000	          0.00000000	          0.00000000	         -0.00000000	         -0.00000000	          0.00000000	         -0.00000000	          0.00000016	         -0.00000348	         -0.00000012	         -0.00000005	          0.00000000	         -0.00000002	          0.00000000	          0.00000000	          0.00000000	          0.00000000	         -0.00000001	          0.00000000	
          2.49500000	          0.00000000	          0.00000000	         -0.00000000	         -0.00000000	          0.00000000	         -0.00000000	          0.00000007	         -0.00000080	         -0.00000004	         -0.00000002	          0.00000000	         -0.00000001	          0.00000000	          0.00000000	          0.00000000	          0.00000000	         -0.00000001	          0.00000000	
          2.50000000	         -0.00000000	         -0.00000000	          0.00000000	          0.00000000	          0.00000000	          0.00000000	          0.00000000	          0.00000015	          0.00000000	         -0.00000000	          0.00000000	         -0.00000000	          0.00000000	         -0.00000000	          0.00000000	          0.00000000	         -0.00000000	          0.00000000	
          2.50500000	         -0.00000000	         -0.00000000	          0.00000000	          0.00000000	          0.00000000	          0.00000000	         -0.00000001	          0.00000013	          0.00000000	          0.00000000	          0.00000000	          0.00000000	          0.00000000	         -0.00000000	          0.00000000	          0.00000000	          0.00000000	          0.00000000	
          2.51000000	         -0.00000000	         -0.00000000	          0.00000000	          0.00000000	          0.00000000	          0.00000000	         -0.00000000	          0.00000002	          0.00000000	          0.00000000	          0.00000000	          0.00000000	          0.00000000	         -0.00000000	          0.00000000	          0.00000000	          0.00000000	          0.00000000	
          2.51500000	          0.00000000	          0.00000000	         -0.00000000	         -0.00000000	          0.00000000	         -0.00000000	          0.00000000	         -0.00000001	         -0.00000000	         -0.00000000	          0.00000000	         -0.00000000	          0.00000000	          0.00000000	          0.00000000	          0.00000000	         -0.00000000	          0.00000000	
          2.52000000	          0.00000000	          0.00000000	         -0.00000000	         -0.00000000	          0.00000000	         -0.00000000	          0.00000000	         -0.00000000	         -0.00000000	         -0.00000000	          0.00000000	         -0.00000000	          0.00000000	          0.00000000	          0.00000000	          0.00000000	         -0.00000000	          0.00000000	
          2.52500000	         -0.00000000	         -0.00000000	         -0.00000000	         -0.00000000	          0.00000000	         -0.00000000	          0.00000000	         -0.00000000	         -0.00000000	         -0.00000000	          0.00000000	         -0.00000000	          0.00000000	          0.00000000	          0.00000000	          0.00000000	         -0.00000000	          0.00000000	
          2.53000000	         -0.00000000	         -0.00000000	          0.00000000	          0.00000000	          0.00000000	          0.00000000	         -0.00000000	          0.00000000	          0.00000000	          0.00000000	          0.00000000	          0.00000000	          0.00000000	         -0.00000000	          0.00000000	          0.00000000	          0.00000000	          0.00000000	
